<svg xmlns="http://www.w3.org/2000/svg" width="20" height="20" viewBox="0 0 20 20"><path fill="#fff" d="M7.133 8.77c-.086-.012-.172-.02-.258-.02-.977 0-1.777.746-1.867 1.703-.004.06-.008.113-.008.172 0 1.035.84 1.875 1.875 1.875s1.875-.84 1.875-1.875c0-.95-.703-1.73-1.617-1.855zm-.258 2.48c-.344 0-.625-.28-.625-.625S6.53 10 6.875 10s.625.28.625.625-.28.625-.625.625z"/><path fill="#fff" d="M20 13.75V12.5h-2.53c.02-.207.03-.414.03-.625 0-.918-.195-1.793-.555-2.594l1.758-6.448c.145-.53-.074-1.098-.543-1.387-.203-.13-.434-.19-.664-.19-.297 0-.59.104-.824.308l-4.328 3.785c-.738-.223-1.53-.344-2.352-.344-.82 0-1.61.12-2.35.344l-4.318-3.79c-.234-.203-.527-.308-.824-.308-.23 0-.457.062-.664.19-.47.294-.688.857-.543 1.388l1.758 6.45c-.355.804-.55 1.68-.55 2.597 0 .223.012.445.035.664H0v1.25h2.793c.117.37.27.733.45 1.077l-2.9 1.45.56 1.116 3.03-1.517C5.298 17.633 7.51 18.75 10 18.75c2.59 0 4.875-1.203 6.223-3.035l2.828 1.7.646-1.07-2.827-1.7c.136-.29.253-.586.352-.89H20v-.005zm-3.93-3.207c.117.426.18.875.18 1.332 0 3.102-2.805 5.625-6.25 5.625s-6.25-2.523-6.25-5.625c0-.46.062-.906.18-1.332.113-.422.234-.79.445-1.168L3.95 7.812 2.5 2.5l3.852 3.367 1.03.903c.403-.168.83-.297 1.27-.387.434-.086.887-.133 1.352-.133.465 0 .914.047 1.352.133.44.09.867.22 1.27.387l1.032-.902L17.5 2.5l-1.45 5.312-.425 1.562c.215.38.332.747.445 1.17z"/><path fill="#fff" d="M13.125 8.75c-.09 0-.176.008-.258.02-.914.125-1.617.906-1.617 1.855 0 1.035.84 1.875 1.875 1.875S15 11.66 15 10.625c0-.06-.004-.117-.008-.172-.09-.957-.89-1.703-1.867-1.703zm0 2.5c-.344 0-.625-.28-.625-.625s.28-.625.625-.625.625.28.625.625-.28.625-.625.625z"/></svg>